<?xml version="1.0" standalone="no"?>
<!DOCTYPE svg PUBLIC "-//W3C//DTD SVG 20010904//EN"
 "http://www.w3.org/TR/2001/REC-SVG-20010904/DTD/svg10.dtd">
<svg version="1.0" xmlns="http://www.w3.org/2000/svg"
 width="600.000000pt" height="223.000000pt" viewBox="0 0 600.000000 223.000000"
 preserveAspectRatio="xMidYMid meet">
<g transform="translate(0.000000,223.000000) scale(0.100000,-0.100000)"
fill="#000000" stroke="none">
<path d="M2590 1783 c0 -5 -6 -45 -14 -91 -10 -63 -11 -84 -2 -90 7 -4 29 -61
50 -127 90 -285 191 -517 294 -675 99 -153 246 -315 334 -368 45 -28 142 -40
239 -31 142 13 194 40 146 74 -12 9 -67 48 -122 87 -55 40 -134 95 -175 124
-148 102 -295 285 -407 504 -27 52 -89 190 -138 305 -49 116 -98 222 -108 238
-25 37 -97 73 -97 50z"/>
<path d="M4660 1705 c-136 -28 -244 -60 -257 -78 -5 -6 -14 -29 -20 -49 -9
-31 -8 -39 6 -51 37 -32 62 -37 209 -37 81 0 175 -5 208 -10 73 -13 144 -38
144 -52 0 -23 -47 -73 -136 -143 -102 -82 -154 -153 -154 -214 0 -59 63 -162
143 -233 39 -35 123 -112 187 -172 142 -134 214 -189 305 -232 87 -42 135 -53
135 -31 0 19 -130 247 -169 296 -30 38 -208 199 -298 270 -29 23 -53 47 -53
55 0 7 31 45 69 85 99 101 186 221 206 281 41 123 -20 245 -155 313 -50 24
-65 27 -155 26 -63 0 -143 -9 -215 -24z"/>
<path d="M1171 1518 c-5 -13 -14 -50 -21 -83 -7 -33 -44 -150 -82 -260 -106
-303 -139 -411 -154 -509 l-13 -90 47 -74 c37 -58 48 -70 50 -53 4 23 12 27
28 11 8 -8 19 -7 38 1 49 23 134 226 176 424 51 237 68 508 38 605 -13 43 -16
45 -56 48 -36 3 -43 0 -51 -20z"/>
</g>
</svg>
